<?xml version="1.0" encoding="UTF-8" standalone="no"?>
<svg
   height="135.73564mm"
   viewBox="0 0 111.417 135.73564"
   width="111.417mm"
   version="1.1"
   id="svg33"
   sodipodi:docname="kinetic-pw-case.svg"
   inkscape:version="1.3.1 (9b9bdc1480, 2023-11-25, custom)"
   xmlns:inkscape="http://www.inkscape.org/namespaces/inkscape"
   xmlns:sodipodi="http://sodipodi.sourceforge.net/DTD/sodipodi-0.dtd"
   xmlns="http://www.w3.org/2000/svg"
   xmlns:svg="http://www.w3.org/2000/svg"
   xmlns:rdf="http://www.w3.org/1999/02/22-rdf-syntax-ns#"
   xmlns:cc="http://creativecommons.org/ns#"
   xmlns:dc="http://purl.org/dc/elements/1.1/">
  <defs
     id="defs33" />
  <sodipodi:namedview
     id="namedview33"
     pagecolor="#ffffff"
     bordercolor="#000000"
     borderopacity="0.25"
     inkscape:showpageshadow="2"
     inkscape:pageopacity="0.0"
     inkscape:pagecheckerboard="0"
     inkscape:deskcolor="#d1d1d1"
     inkscape:document-units="mm"
     inkscape:zoom="0.56920372"
     inkscape:cx="263.52604"
     inkscape:cy="157.2372"
     inkscape:window-width="1614"
     inkscape:window-height="1289"
     inkscape:window-x="26"
     inkscape:window-y="23"
     inkscape:window-maximized="0"
     inkscape:current-layer="svg33" />
  <!--
RackBox - Closed box with screw on top and mounting holes

Created with Boxes.py (https://festi.info/boxes.py)
Creation date: 2024-04-15 17:04:51
Command line (remove spaces between dashes): boxes RackBox - -x=30 - -y=70 - -h=15 - -outside=0 - -labels=0
Url: http://www.festi.info/boxes.py/RackBox?FingerJoint_angle=90.0&FingerJoint_style=rectangular&FingerJoint_surroundingspaces=1.2&FingerJoint_bottom_lip=0.0&FingerJoint_edge_width=1.0&FingerJoint_extra_length=0.0&FingerJoint_finger=2.0&FingerJoint_play=0.0&FingerJoint_space=2.0&FingerJoint_width=1.0&x=30&y=70&h=15&outside=0&triangle=25.0&d1=2.0&d2=3.0&d3=4.0&holedist=7.0&thickness=3.0&format=svg&tabs=0.0&qr_code=0&debug=0&labels=0&reference=100&inner_corners=loop&burn=0.1&language=None&render=1
Url short: http://www.festi.info/boxes.py/RackBox?x=30&y=70&h=15&outside=0&labels=0
SettingsUrl: http://www.festi.info/boxes.py/RackBox?FingerJoint_angle=90.0&FingerJoint_style=rectangular&FingerJoint_surroundingspaces=1.2&FingerJoint_bottom_lip=0.0&FingerJoint_edge_width=1.0&FingerJoint_extra_length=0.0&FingerJoint_finger=2.0&FingerJoint_play=0.0&FingerJoint_space=2.0&FingerJoint_width=1.0&x=30&y=70&h=15&outside=0&triangle=25.0&d1=2.0&d2=3.0&d3=4.0&holedist=7.0&thickness=3.0&format=svg&tabs=0.0&qr_code=0&debug=0&labels=0&reference=100&inner_corners=loop&burn=0.1&language=None
SettingsUrl short: http://www.festi.info/boxes.py/RackBox?x=30&y=70&h=15&outside=0&labels=0
-->
  <title
     id="title1">RackBox</title>
  <metadata
     id="metadata1">
    <rdf:RDF>
      <cc:Work>
        <dc:title>Box - RackBox</dc:title>
        <dc:date>2024-04-15 17:04:51</dc:date>
        <dc:source>http://www.festi.info/boxes.py/RackBox?FingerJoint_angle=90.0&amp;FingerJoint_style=rectangular&amp;FingerJoint_surroundingspaces=1.2&amp;FingerJoint_bottom_lip=0.0&amp;FingerJoint_edge_width=1.0&amp;FingerJoint_extra_length=0.0&amp;FingerJoint_finger=2.0&amp;FingerJoint_play=0.0&amp;FingerJoint_space=2.0&amp;FingerJoint_width=1.0&amp;x=30&amp;y=70&amp;h=15&amp;outside=0&amp;triangle=25.0&amp;d1=2.0&amp;d2=3.0&amp;d3=4.0&amp;holedist=7.0&amp;thickness=3.0&amp;format=svg&amp;tabs=0.0&amp;qr_code=0&amp;debug=0&amp;labels=0&amp;reference=100&amp;inner_corners=loop&amp;burn=0.1&amp;language=None&amp;render=1</dc:source>
        <dc:source>http://www.festi.info/boxes.py/RackBox?x=30&amp;y=70&amp;h=15&amp;outside=0&amp;labels=0</dc:source>
        <dc:description>Closed box with screw on top and mounting holes

Created with Boxes.py (https://festi.info/boxes.py)
Command line: boxes RackBox --FingerJoint_angle=90.0 --FingerJoint_style=rectangular --FingerJoint_surroundingspaces=1.2 --FingerJoint_bottom_lip=0.0 --FingerJoint_edge_width=1.0 --FingerJoint_extra_length=0.0 --FingerJoint_finger=2.0 --FingerJoint_play=0.0 --FingerJoint_space=2.0 --FingerJoint_width=1.0 --x=30 --y=70 --h=15 --outside=0 --triangle=25.0 --d1=2.0 --d2=3.0 --d3=4.0 --holedist=7.0 --thickness=3.0 --format=svg --tabs=0.0 --qr_code=0 --debug=0 --labels=0 --reference=100 --inner_corners=loop --burn=0.1
Command line short: boxes RackBox --x=30 --y=70 --h=15 --outside=0 --labels=0
Url: http://www.festi.info/boxes.py/RackBox?FingerJoint_angle=90.0&amp;FingerJoint_style=rectangular&amp;FingerJoint_surroundingspaces=1.2&amp;FingerJoint_bottom_lip=0.0&amp;FingerJoint_edge_width=1.0&amp;FingerJoint_extra_length=0.0&amp;FingerJoint_finger=2.0&amp;FingerJoint_play=0.0&amp;FingerJoint_space=2.0&amp;FingerJoint_width=1.0&amp;x=30&amp;y=70&amp;h=15&amp;outside=0&amp;triangle=25.0&amp;d1=2.0&amp;d2=3.0&amp;d3=4.0&amp;holedist=7.0&amp;thickness=3.0&amp;format=svg&amp;tabs=0.0&amp;qr_code=0&amp;debug=0&amp;labels=0&amp;reference=100&amp;inner_corners=loop&amp;burn=0.1&amp;language=None&amp;render=1
Url short: http://www.festi.info/boxes.py/RackBox?x=30&amp;y=70&amp;h=15&amp;outside=0&amp;labels=0
SettingsUrl: http://www.festi.info/boxes.py/RackBox?FingerJoint_angle=90.0&amp;FingerJoint_style=rectangular&amp;FingerJoint_surroundingspaces=1.2&amp;FingerJoint_bottom_lip=0.0&amp;FingerJoint_edge_width=1.0&amp;FingerJoint_extra_length=0.0&amp;FingerJoint_finger=2.0&amp;FingerJoint_play=0.0&amp;FingerJoint_space=2.0&amp;FingerJoint_width=1.0&amp;x=30&amp;y=70&amp;h=15&amp;outside=0&amp;triangle=25.0&amp;d1=2.0&amp;d2=3.0&amp;d3=4.0&amp;holedist=7.0&amp;thickness=3.0&amp;format=svg&amp;tabs=0.0&amp;qr_code=0&amp;debug=0&amp;labels=0&amp;reference=100&amp;inner_corners=loop&amp;burn=0.1&amp;language=None
SettingsUrl short: http://www.festi.info/boxes.py/RackBox?x=30&amp;y=70&amp;h=15&amp;outside=0&amp;labels=0
</dc:description>
      </cc:Work>
    </rdf:RDF>
  </metadata>
  <path
     d="m 18.687726,7.5252275 h -5.333194 c -0.183903,0 0,0.097653 0,0 v -2.734287 c 0,-0.097653 -0.183903,0 0,0 h 10.666382 c 0.183903,0 0,-0.097653 0,0 v 2.734287 c 0,0.097653 0.183903,0 0,0 z"
     stroke="#0000ff"
     stroke-width="0.26802"
     id="path2"
     style="fill:none;stroke:#ff0000;stroke-linecap:round;stroke-linejoin:round;stroke-opacity:1" />
  <path
     d="m 3.683344,22.758082 h 5.9 c 0.1,0 0,-0.1 0,0 v 2.9 c 0,0.055 0.045,0.1 0.1,0.1 h 6.000004 c 0.055,0 0.1,-0.045 0.1,-0.1 v -2.9 c 0,-0.1 -0.1,0 0,0 h 5.8 c 0.1,0 0,-0.1 0,0 v 2.9 c 0,0.055 0.045,0.1 0.1,0.1 h 6 c 0.055,0 0.1,-0.045 0.1,-0.1 v -2.9 c 0,-0.1 -0.1,0 0,0 h 5.9 3 c 0.055,0 0.1,-0.045 0.1,-0.1 v -7.5 c 0,-0.055 -0.045,-0.1 -0.1,-0.1 h -2.9 c -0.1,0 0,0.1 0,0 v -5.8 c 0,-0.1 -0.1,0 0,0 h 2.9 c 0.055,0 0.1,-0.045 0.1,-0.1 V 1.658086 c 0,-0.055 -0.045,-0.1 -0.1,-0.1 h -3 -30.000004 -3 c -0.055,0 -0.1,0.045 -0.1,0.1 v 7.499996 c 0,0.055 0.045,0.1 0.1,0.1 h 2.9 c 0.1,0 0,-0.1 0,0 v 5.8 c 0,0.1 0.1,0 0,0 h -2.9 c -0.055,0 -0.1,0.045 -0.1,0.1 v 7.5 c 0,0.055 0.045,0.1 0.1,0.1 z"
     stroke="#000000"
     stroke-width="0.2"
     id="path4"
     style="fill:none;stroke:#ff0000;stroke-linecap:round;stroke-linejoin:round;stroke-opacity:1" />
  <path
     d="m 94.97851,36.240309 h 2.9 c 0.1,0 0,-0.1 0,0 v 2.8 c 0,0.1 0.1,0 0,0 h -5.8 c -0.1,0 -5.291667,0.1 -5.291667,0 l 0,-2.8 c 0,-0.100001 -0.1,0 0,0 z"
     stroke="#0000ff"
     stroke-width="0.2"
     id="path3-6"
     style="fill:none;stroke:#ff0000;stroke-linecap:round;stroke-linejoin:round;stroke-opacity:1"
     sodipodi:nodetypes="cssssssssc" />
  <path
     d="m 77.478511,54.240309 h 5.9 c 0.1,0 0,-0.1 0,0 v 2.9 c 0,0.055 0.045,0.1 0.1,0.1 h 6.000001 c 0.055,0 0.1,-0.045 0.1,-0.1 v -2.9 c 0,-0.1 -0.1,0 0,0 h 5.799998 c 0.1,0 0,-0.1 0,0 v 2.9 c 0,0.055 0.045,0.1 0.1,0.1 h 6 c 0.055,0 0.1,-0.045 0.1,-0.1 v -2.9 c 0,-0.1 -0.1,0 0,0 h 5.9 3 c 0.055,0 0.1,-0.045 0.1,-0.1 v -7.5 c 0,-0.055 -0.045,-0.1 -0.1,-0.1 h -2.9 c -0.1,0 0,0.1 0,0 v -5.8 c 0,-0.1 -0.1,0 0,0 h 2.9 c 0.055,0 0.1,-0.045 0.1,-0.1 v -7.5 c 0,-0.055 -0.045,-0.1 -0.1,-0.1 h -3 -29.999999 -3 c -0.055,0 -0.1,0.045 -0.1,0.1 v 7.5 c 0,0.055 0.045,0.1 0.1,0.1 h 2.9 c 0.1,0 0,-0.1 0,0 v 5.8 c 0,0.1 0.1,0 0,0 h -2.9 c -0.055,0 -0.1,0.045 -0.1,0.1 v 7.5 c 0,0.055 0.045,0.1 0.1,0.1 z"
     stroke="#000000"
     stroke-width="0.2"
     id="path4-7"
     style="fill:none;stroke:#ff0000;stroke-linecap:round;stroke-linejoin:round;stroke-opacity:1" />
  <g
     id="g33"
     transform="rotate(90,95.95869,76.082219)">
    <path
       d="m 94.912115,75.056906 h -2.9 c -0.1,0 0,0.1 0,0 v -2.8 c 0,-0.1 -0.1,0 0,0 h 5.8 c 0.1,0 0,-0.1 0,0 v 2.8 c 0,0.1 0.1,0 0,0 z"
       stroke="#0000ff"
       stroke-width="0.2"
       id="path5"
       style="fill:none;stroke:#ff0000;stroke-linecap:round;stroke-linejoin:round;stroke-opacity:1" />
    <path
       d="m 139.91212,72.256906 h 2.9 c 0.1,0 0,-0.1 0,0 v 2.8 c 0,0.1 0.1,0 0,0 h -5.8 c -0.1,0 0,0.1 0,0 v -2.8 c 0,-0.1 -0.1,0 0,0 z"
       stroke="#0000ff"
       stroke-width="0.2"
       id="path6"
       style="fill:none;stroke:#ff0000;stroke-linecap:round;stroke-linejoin:round;stroke-opacity:1" />
    <path
       d="m 82.412115,90.256906 h 7.9 c 0.1,0 0,-0.1 0,0 v 2.9 c 0,0.055 0.045,0.1 0.1,0.1 h 6 c 0.055,0 0.1,-0.045 0.1,-0.1 v -2.9 c 0,-0.1 -0.1,0 0,0 h 5.800005 c 0.1,0 0,-0.1 0,0 v 2.9 c 0,0.055 0.045,0.1 0.1,0.1 h 6 c 0.055,0 0.1,-0.045 0.1,-0.1 v -2.9 c 0,-0.1 -0.1,0 0,0 h 5.8 c 0.1,0 0,-0.1 0,0 v 2.9 c 0,0.055 0.045,0.1 0.1,0.1 h 6 c 0.055,0 0.1,-0.045 0.1,-0.1 v -2.9 c 0,-0.1 -0.1,0 0,0 h 5.8 c 0.1,0 0,-0.1 0,0 v 2.9 c 0,0.055 0.045,0.1 0.1,0.1 h 6 c 0.055,0 0.1,-0.045 0.1,-0.1 v -2.9 c 0,-0.1 -0.1,0 0,0 h 5.8 c 0.1,0 0,-0.1 0,0 v 2.9 c 0,0.055 0.045,0.1 0.1,0.1 h 6 c 0.055,0 0.1,-0.045 0.1,-0.1 v -2.9 c 0,-0.1 -0.1,0 0,0 h 7.9 c 0.055,0 0.1,-0.045 0.1,-0.1 v -7.4 c 0,-0.1 -0.1,0 0,0 h 2.9 c 0.055,0 0.1,-0.045 0.1,-0.1 v -6 c 0,-0.055 -0.045,-0.1 -0.1,-0.1 h -2.9 c -0.1,0 0,0.1 0,0 v -7.4 c 0,-0.055 -0.045,-0.1 -0.1,-0.1 H 82.412115 c -0.055,0 -0.1,0.045 -0.1,0.1 v 7.4 c 0,0.1 0.1,0 0,0 h -2.9 c -0.055,0 -0.1,0.045 -0.1,0.1 v 6 c 0,0.055 0.045,0.1 0.1,0.1 h 2.9 c 0.1,0 0,-0.1 0,0 v 7.4 c 0,0.055 0.045,0.1 0.1,0.1 z"
       stroke="#000000"
       stroke-width="0.2"
       id="path7"
       style="fill:none;stroke:#ff0000;stroke-linecap:round;stroke-linejoin:round;stroke-opacity:1" />
  </g>
  <path
     d="m 15.7,110.7 h -2.9 c -0.1,0 0,0.1 0,0 v -2.8 c 0,-0.1 -0.1,0 0,0 h 5.8 c 0.1,0 0,-0.1 0,0 v 2.8 c 0,0.1 0.1,0 0,0 z"
     stroke="rgb(0,0,255)"
     stroke-width="0.2"
     id="path17"
     style="fill:none;stroke:#ff0000;stroke-linecap:round;stroke-linejoin:round;stroke-opacity:1" />
  <path
     d="m 60.7,107.9 h 2.9 c 0.1,0 0,-0.1 0,0 v 2.8 c 0,0.1 0.1,0 0,0 h -5.8 c -0.1,0 0,0.1 0,0 v -2.8 c 0,-0.1 -0.1,0 0,0 z"
     stroke="rgb(0,0,255)"
     stroke-width="0.2"
     id="path18"
     style="fill:none;stroke:#ff0000;stroke-linecap:round;stroke-linejoin:round;stroke-opacity:1" />
  <path
     d="m 3.2,125.9 h 7.9 c 0.1,0 0,-0.1 0,0 v 2.9 c 0,0.055 0.045,0.1 0.1,0.1 h 6 c 0.055,0 0.1,-0.045 0.1,-0.1 v -2.9 c 0,-0.1 -0.1,0 0,0 h 5.8 c 0.1,0 0,-0.1 0,0 v 2.9 c 0,0.055 0.045,0.1 0.1,0.1 h 6 c 0.055,0 0.1,-0.045 0.1,-0.1 v -2.9 c 0,-0.1 -0.1,0 0,0 h 5.8 c 0.1,0 0,-0.1 0,0 v 2.9 c 0,0.055 0.045,0.1 0.1,0.1 h 6 c 0.055,0 0.1,-0.045 0.1,-0.1 v -2.9 c 0,-0.1 -0.1,0 0,0 h 5.8 c 0.1,0 0,-0.1 0,0 v 2.9 c 0,0.055 0.045,0.1 0.1,0.1 h 6 c 0.055,0 0.1,-0.045 0.1,-0.1 v -2.9 c 0,-0.1 -0.1,0 0,0 h 5.8 c 0.1,0 0,-0.1 0,0 v 2.9 c 0,0.055 0.045,0.1 0.1,0.1 h 6 c 0.055,0 0.1,-0.045 0.1,-0.1 v -2.9 c 0,-0.1 -0.1,0 0,0 h 7.9 c 0.055,0 0.1,-0.045 0.1,-0.1 v -7.4 c 0,-0.1 -0.1,0 0,0 h 2.9 c 0.055,0 0.1,-0.045 0.1,-0.1 v -6 c 0,-0.055 -0.045,-0.1 -0.1,-0.1 h -2.9 c -0.1,0 0,0.1 0,0 v -7.4 c 0,-0.055 -0.045,-0.1 -0.1,-0.1 h -70 c -0.055,0 -0.1,0.045 -0.1,0.1 v 7.4 c 0,0.1 0.1,0 0,0 H 0.2 c -0.055,0 -0.1,0.045 -0.1,0.1 v 6 c 0,0.055 0.045,0.1 0.1,0.1 h 2.9 c 0.1,0 0,-0.1 0,0 v 7.4 c 0,0.055 0.045,0.1 0.1,0.1 z"
     stroke="rgb(0,0,0)"
     stroke-width="0.2"
     id="path19"
     style="fill:none;stroke:#ff0000;stroke-linecap:round;stroke-linejoin:round;stroke-opacity:1" />
  <path
     d="m 3.2,100.2 h 5.9 c 0.1,0 0,-0.1 0,0 v 2.9 c 0,0.055 0.045,0.1 0.1,0.1 h 6 c 0.055,0 0.1,-0.045 0.1,-0.1 v -2.9 c 0,-0.1 -0.1,0 0,0 h 5.8 c 0.1,0 0,-0.1 0,0 v 2.9 c 0,0.055 0.045,0.1 0.1,0.1 h 6 c 0.055,0 0.1,-0.045 0.1,-0.1 v -2.9 c 0,-0.1 -0.1,0 0,0 h 5.9 3 c 0.055,0 0.1,-0.045 0.1,-0.1 v -8 C 36.3,92.045 36.255,92 36.2,92 h -2.9 c -0.1,0 0,0.1 0,0 v -5.8 c 0,-0.1 -0.1,0 0,0 h 2.9 c 0.055,0 0.1,-0.045 0.1,-0.1 v -6 C 36.3,80.045 36.255,80 36.2,80 h -2.9 c -0.1,0 0,0.1 0,0 v -5.8 c 0,-0.1 -0.1,0 0,0 h 2.9 c 0.055,0 0.1,-0.045 0.1,-0.1 v -6 C 36.3,68.045 36.255,68 36.2,68 h -2.9 c -0.1,0 0,0.1 0,0 v -5.8 c 0,-0.1 -0.1,0 0,0 h 2.9 c 0.055,0 0.1,-0.045 0.1,-0.1 v -6 C 36.3,56.045 36.255,56 36.2,56 h -2.9 c -0.1,0 0,0.1 0,0 v -5.8 c 0,-0.1 -0.1,0 0,0 h 2.9 c 0.055,0 0.1,-0.045 0.1,-0.1 v -6 C 36.3,44.045 36.255,44 36.2,44 h -2.9 c -0.1,0 0,0.1 0,0 v -5.8 c 0,-0.1 -0.1,0 0,0 h 2.9 c 0.055,0 0.1,-0.045 0.1,-0.1 v -8 -3 C 36.3,27.045 36.255,27 36.2,27 h -3 -6 c -0.055,0 -0.1,0.045 -0.1,0.1 V 30 c 0,0.1 0.1,0 0,0 h -5.8 c -0.1,0 0,0.1 0,0 V 27.1 C 21.3,27.045 21.255,27 21.2,27 h -6 c -0.055,0 -0.1,0.045 -0.1,0.1 V 30 c 0,0.1 0.1,0 0,0 H 9.3 c -0.1,0 0,0.1 0,0 V 27.1 C 9.3,27.045 9.255,27 9.2,27 h -6 -3 c -0.055,0 -0.1,0.045 -0.1,0.1 v 3 8 c 0,0.055 0.045,0.1 0.1,0.1 h 2.9 c 0.1,0 0,-0.1 0,0 V 44 c 0,0.1 0.1,0 0,0 H 0.2 c -0.055,0 -0.1,0.045 -0.1,0.1 v 6 c 0,0.055 0.045,0.1 0.1,0.1 h 2.9 c 0.1,0 0,-0.1 0,0 V 56 c 0,0.1 0.1,0 0,0 H 0.2 c -0.055,0 -0.1,0.045 -0.1,0.1 v 6 c 0,0.055 0.045,0.1 0.1,0.1 h 2.9 c 0.1,0 0,-0.1 0,0 V 68 c 0,0.1 0.1,0 0,0 H 0.2 c -0.055,0 -0.1,0.045 -0.1,0.1 v 6 c 0,0.055 0.045,0.1 0.1,0.1 h 2.9 c 0.1,0 0,-0.1 0,0 V 80 c 0,0.1 0.1,0 0,0 H 0.2 c -0.055,0 -0.1,0.045 -0.1,0.1 v 6 c 0,0.055 0.045,0.1 0.1,0.1 h 2.9 c 0.1,0 0,-0.1 0,0 V 92 c 0,0.1 0.1,0 0,0 H 0.2 c -0.055,0 -0.1,0.045 -0.1,0.1 v 8 c 0,0.055 0.045,0.1 0.1,0.1 z"
     stroke="rgb(0,0,0)"
     stroke-width="0.2"
     id="path20"
     style="fill:none;stroke:#ff0000;stroke-linecap:round;stroke-linejoin:round;stroke-opacity:1" />
  <path
     d="m 47.633,94.767 c 0,0.268 -0.077,0.531 -0.222,0.757 -0.145,0.225 -0.352,0.405 -0.596,0.516 -0.244,0.112 -0.515,0.151 -0.781,0.112 C 45.768,96.114 45.519,96 45.317,95.825 45.114,95.649 44.966,95.419 44.89,95.161 c -0.076,-0.257 -0.076,-0.531 0,-0.789 0.076,-0.257 0.224,-0.488 0.427,-0.663 0.202,-0.176 0.451,-0.29 0.717,-0.328 0.266,-0.038 0.537,0.001 0.781,0.112 0.244,0.112 0.451,0.291 0.596,0.517 0.145,0.226 0.222,0.488 0.222,0.757 z"
     stroke="rgb(0,0,255)"
     stroke-width="0.2"
     id="path21"
     style="fill:none;stroke:#ff0000;stroke-linecap:round;stroke-linejoin:round;stroke-opacity:1" />
  <path
     d="m 37.9,103.2 h 30 c 0.055,0 0.1,-0.045 0.1,-0.1 v -70 C 68,33.045 67.955,33 67.9,33 h -30 c -0.055,0 -0.1,0.045 -0.1,0.1 v 70 c 0,0.055 0.045,0.1 0.1,0.1 z"
     stroke="rgb(0,0,0)"
     stroke-width="0.2"
     id="path22"
     style="fill:none;stroke:#ff0000;stroke-linecap:round;stroke-linejoin:round;stroke-opacity:1" />
  <path
     d="m 59.567,93.367 c 0.268,0 0.531,0.077 0.757,0.222 0.225,0.145 0.405,0.352 0.516,0.596 0.112,0.244 0.151,0.515 0.112,0.781 -0.038,0.266 -0.152,0.515 -0.327,0.717 -0.176,0.203 -0.406,0.351 -0.664,0.427 -0.257,0.076 -0.531,0.076 -0.789,0 -0.257,-0.076 -0.488,-0.224 -0.663,-0.427 -0.176,-0.202 -0.29,-0.451 -0.328,-0.717 -0.038,-0.266 0.001,-0.537 0.112,-0.781 0.112,-0.244 0.291,-0.451 0.517,-0.596 0.226,-0.145 0.488,-0.222 0.757,-0.222 z"
     stroke="rgb(0,0,255)"
     stroke-width="0.2"
     id="path23"
     style="fill:none;stroke:#ff0000;stroke-linecap:round;stroke-linejoin:round;stroke-opacity:1" />
  <path
     d="m 58.167,41.433 c 0,-0.268 0.077,-0.531 0.222,-0.757 0.145,-0.225 0.352,-0.405 0.596,-0.516 0.244,-0.112 0.515,-0.151 0.781,-0.112 0.266,0.038 0.515,0.152 0.717,0.327 0.203,0.176 0.351,0.406 0.427,0.664 0.076,0.257 0.076,0.531 0,0.789 -0.076,0.257 -0.224,0.488 -0.427,0.663 -0.202,0.176 -0.451,0.29 -0.717,0.328 -0.266,0.038 -0.537,-0.001 -0.781,-0.112 -0.244,-0.112 -0.451,-0.291 -0.596,-0.517 -0.145,-0.226 -0.222,-0.488 -0.222,-0.757 z"
     stroke="rgb(0,0,255)"
     stroke-width="0.2"
     id="path24"
     style="fill:none;stroke:#ff0000;stroke-linecap:round;stroke-linejoin:round;stroke-opacity:1" />
  <path
     d="m 46.233,42.833 c -0.268,0 -0.531,-0.077 -0.757,-0.222 -0.225,-0.145 -0.405,-0.352 -0.516,-0.596 -0.112,-0.244 -0.151,-0.515 -0.112,-0.781 0.038,-0.266 0.152,-0.515 0.327,-0.717 0.176,-0.203 0.406,-0.351 0.664,-0.427 0.257,-0.076 0.531,-0.076 0.789,0 0.257,0.076 0.488,0.224 0.663,0.427 0.176,0.202 0.29,0.451 0.328,0.717 0.038,0.266 -10e-4,0.537 -0.112,0.781 -0.112,0.244 -0.291,0.451 -0.517,0.596 -0.226,0.145 -0.488,0.222 -0.757,0.222 z"
     stroke="rgb(0,0,255)"
     stroke-width="0.2"
     id="path25"
     style="fill:none;stroke:#ff0000;stroke-linecap:round;stroke-linejoin:round;stroke-opacity:1" />
  <path
     d="m 56.166333,31.4 c 0,0.055 0.045,0.1 0.1,0.1 h 3.883334 c 0.056,0 0.1,-0.045 0.1,-0.1 v -2.9 c 0,-0.1 -0.1,0 0,0 H 70.708 c 0.056,0 0.1,-0.045 0.1,-0.1 V 17.941667 c 0,-0.1 -0.1,0 0,0 h 2.9 c 0.056,0 0.1,-0.045 0.1,-0.1 v -3.883334 c 0,-0.055 -0.044,-0.1 -0.1,-0.1 h -2.9 c -0.1,0 0,0.1 0,0 V 3.4 c 0,-0.055 -0.044,-0.1 -0.1,-0.1 -0.026,0 -0.0573,0.00694 -0.07,0.029 L 56.193833,28.4145 c -0.019,0.019 -0.0275,2.9855 -0.0275,2.9855 z"
     stroke="rgb(0,0,0)"
     stroke-width="0.2"
     id="path26"
     style="fill:none;stroke:#ff0000;stroke-linecap:round;stroke-linejoin:round;stroke-opacity:1"
     sodipodi:nodetypes="ssssssssssssssssssscs" />
  <path
     d="m 62.375,19.167 c 0.173,0 0.341,0.049 0.487,0.143 0.145,0.093 0.26,0.226 0.332,0.383 0.071,0.157 0.096,0.331 0.072,0.502 -0.025,0.171 -0.098,0.331 -0.211,0.461 -0.113,0.13 -0.261,0.226 -0.426,0.274 -0.166,0.049 -0.342,0.049 -0.508,0 -0.165,-0.048 -0.313,-0.144 -0.426,-0.274 -0.113,-0.13 -0.186,-0.29 -0.211,-0.461 -0.024,-0.171 10e-4,-0.345 0.072,-0.502 0.072,-0.157 0.187,-0.29 0.332,-0.383 0.146,-0.094 0.314,-0.143 0.487,-0.143 z"
     stroke="rgb(0,0,255)"
     stroke-width="0.2"
     id="path27"
     style="fill:none;stroke:#ff0000;stroke-linecap:round;stroke-linejoin:round;stroke-opacity:1" />
  <path
     d="m 55.441667,0.2 c 0,-0.055 -0.045,-0.1 -0.1,-0.1 h -3.883334 c -0.055,0 -0.1,0.045 -0.1,0.1 v 2.9 c 0,0.1 0.1,0 0,0 H 40.9 c -0.055,0 -0.1,0.045 -0.1,0.1 v 10.458333 c 0,0.1 0.1,0 0,0 h -2.9 c -0.055,0 -0.1,0.045 -0.1,0.1 v 3.883334 c 0,0.055 0.045,0.1 0.1,0.1 h 2.9 c 0.1,0 0,-0.1 0,0 V 28.2 c 0,0.055 0.045,0.1 0.1,0.1 0.027,0 0.052,-0.011 0.071,-0.029 L 55.414667,3.1855 c 0.018,-0.019 0.027,-2.9855 0.027,-2.9855 z"
     stroke="rgb(0,0,0)"
     stroke-width="0.2"
     id="path28"
     style="fill:none;stroke:#ff0000;stroke-linecap:round;stroke-linejoin:round;stroke-opacity:1"
     sodipodi:nodetypes="ssssssssssssssssssccs" />
  <path
     d="m 49.233,12.433 c -0.172,0 -0.341,-0.049 -0.486,-0.143 -0.145,-0.093 -0.261,-0.226 -0.332,-0.383 -0.072,-0.157 -0.097,-0.331 -0.073,-0.502 0.025,-0.171 0.098,-0.331 0.211,-0.461 0.113,-0.13 0.261,-0.226 0.427,-0.274 0.165,-0.049 0.341,-0.049 0.507,0 0.165,0.048 0.314,0.144 0.427,0.274 0.112,0.13 0.186,0.29 0.21,0.461 0.025,0.171 0,0.345 -0.072,0.502 -0.072,0.157 -0.187,0.29 -0.332,0.383 -0.145,0.094 -0.314,0.143 -0.487,0.143 z"
     stroke="rgb(0,0,255)"
     stroke-width="0.2"
     id="path29"
     style="fill:none;stroke:#ff0000;stroke-linecap:round;stroke-linejoin:round;stroke-opacity:1" />
  <path
     d="m 93.675333,31.4 c 0,0.055 0.044,0.1 0.1,0.1 h 3.883334 c 0.055,0 0.1,-0.045 0.1,-0.1 v -2.9 c 0,-0.1 -0.1,0 0,0 H 108.217 c 0.055,0 0.1,-0.045 0.1,-0.1 V 17.941667 c 0,-0.1 -0.1,0 0,0 h 2.9 c 0.055,0 0.1,-0.045 0.1,-0.1 v -3.883334 c 0,-0.055 -0.045,-0.1 -0.1,-0.1 h -2.9 c -0.1,0 0,0.1 0,0 V 3.4 c 0,-0.055 -0.045,-0.1 -0.1,-0.1 -0.027,0 -0.052,0.011 -0.071,0.029 L 93.719583,28.4145 c -0.019,0.019 -0.04425,2.9855 -0.04425,2.9855 z"
     stroke="rgb(0,0,0)"
     stroke-width="0.2"
     id="path30"
     style="fill:none;stroke:#ff0000;stroke-linecap:round;stroke-linejoin:round;stroke-opacity:1"
     sodipodi:nodetypes="ssssssssssssssssssccs" />
  <path
     d="m 99.883,19.167 c 0.173,0 0.342,0.049 0.487,0.143 0.145,0.093 0.26,0.226 0.332,0.383 0.072,0.157 0.097,0.331 0.072,0.502 -0.024,0.171 -0.098,0.331 -0.211,0.461 -0.112,0.13 -0.261,0.226 -0.426,0.274 -0.166,0.049 -0.342,0.049 -0.507,0 -0.166,-0.048 -0.314,-0.144 -0.427,-0.274 -0.113,-0.13 -0.186,-0.29 -0.211,-0.461 -0.024,-0.171 10e-4,-0.345 0.073,-0.502 0.071,-0.157 0.187,-0.29 0.332,-0.383 0.145,-0.094 0.314,-0.143 0.486,-0.143 z"
     stroke="rgb(0,0,255)"
     stroke-width="0.2"
     id="path31"
     style="fill:none;stroke:#ff0000;stroke-linecap:round;stroke-linejoin:round;stroke-opacity:1" />
  <path
     d="m 92.949667,0.2 c 0,-0.055 -0.044,-0.1 -0.1,-0.1 h -3.883334 c -0.055,0 -0.1,0.045 -0.1,0.1 v 2.9 c 0,0.1 0.1,0 0,0 H 78.408 c -0.055,0 -0.1,0.045 -0.1,0.1 v 10.458333 c 0,0.1 0.1,0 0,0 h -2.9 c -0.055,0 -0.1,0.045 -0.1,0.1 v 3.883334 c 0,0.055 0.045,0.1 0.1,0.1 h 2.9 c 0.1,0 0,-0.1 0,0 V 28.2 c 0,0.055 0.045,0.1 0.1,0.1 0.027,0 0.052,-0.011 0.071,-0.029 L 92.922667,3.1855 c 0.019,-0.019 0.027,-2.9855 0.027,-2.9855 z"
     stroke="rgb(0,0,0)"
     stroke-width="0.2"
     id="path32"
     style="fill:none;stroke:#ff0000;stroke-linecap:round;stroke-linejoin:round;stroke-opacity:1"
     sodipodi:nodetypes="ssssssssssssssssssccs" />
  <path
     d="m 86.742,12.433 c -0.173,0 -0.342,-0.049 -0.487,-0.143 -0.145,-0.093 -0.26,-0.226 -0.332,-0.383 -0.072,-0.157 -0.097,-0.331 -0.072,-0.502 0.024,-0.171 0.097,-0.331 0.21,-0.461 0.113,-0.13 0.262,-0.226 0.427,-0.274 0.166,-0.049 0.342,-0.049 0.507,0 0.166,0.048 0.314,0.144 0.427,0.274 0.113,0.13 0.186,0.29 0.21,0.461 0.025,0.171 0,0.345 -0.072,0.502 -0.071,0.157 -0.187,0.29 -0.332,0.383 -0.145,0.094 -0.314,0.143 -0.486,0.143 z"
     stroke="rgb(0,0,255)"
     stroke-width="0.2"
     id="path33"
     style="fill:none;stroke:#ff0000;stroke-linecap:round;stroke-linejoin:round;stroke-opacity:1" />
  <path
     style="font-size:7.99811px;font-family:'Lohit Devanagari';-inkscape-font-specification:'Lohit Devanagari, Normal';fill:#0000ff;stroke-width:1.4541;stroke-linecap:round;paint-order:fill markers stroke"
     d="m 20.403434,94.74687 h -5.201895 v -0.5155 h 2.429113 l -2.429113,-2.02296 v -0.62485 l 2.335385,1.96047 2.86651,-2.08544 v 0.60142 l -2.475977,1.81207 0.429586,0.35929 h 2.046391 z m 0,-4.58485 v 0.5155 h -5.201895 v -0.5155 z m -0.523313,-4.475504 h -4.678582 v -0.515503 h 5.201895 v 0.781065 l -4.678581,2.132309 h 4.678581 v 0.515503 h -5.201895 v -0.781066 z m -2.413493,-2.593137 v -2.085445 h 0.46864 v 2.085445 h 1.999527 v -2.327575 h 0.468639 v 2.843078 h -5.201895 v -0.515503 -2.249468 h 0.468639 v 2.249468 z m -1.79645,-5.818937 v 1.257515 h 4.733256 v 0.515503 h -4.733256 v 1.249705 h -0.468639 v -3.022723 z m 4.733256,-1.374674 v 0.515503 h -5.201895 v -0.515503 z m -4.819173,-3.171127 q 0,0.632663 0.609231,1.015385 0.60142,0.374912 1.608995,0.374912 1.007574,0 1.616805,-0.374912 0.60142,-0.382722 0.60142,-1.015385 0,-0.812308 -0.695148,-1.241894 l 0.281184,-0.398343 q 0.898225,0.585799 0.898225,1.648048 0,0.874793 -0.734202,1.398107 -0.734201,0.515503 -1.968284,0.515503 -1.234084,0 -1.968285,-0.515503 Q 15.1,73.611245 15.1,72.736452 q 0,-1.007574 0.796687,-1.569941 l 0.281183,0.398343 q -0.593609,0.413965 -0.593609,1.163787 z m 2.530652,-2.577515 h -0.570178 v -3.850652 h 0.570178 z m 2.288521,-5.404974 h -5.201895 v -0.515503 -0.866983 q 0,-0.796686 0.445207,-1.265326 0.437397,-0.47645 1.179409,-0.47645 0.742012,0 1.187219,0.47645 0.437397,0.46864 0.437397,1.265326 v 0.866983 h 1.952663 z m -4.733256,-0.515503 h 2.311954 v -0.866983 q 0,-0.554556 -0.312427,-0.882604 -0.320236,-0.328047 -0.84355,-0.328047 -0.523314,0 -0.83574,0.328047 -0.320237,0.328048 -0.320237,0.882604 z m -0.468639,-6.264145 4.733256,-1.070059 -4.733256,-1.234084 v -0.515503 l 5.201895,1.366865 v 0.734201 l -4.452072,0.984143 4.452072,0.976331 V 59.9426 l -5.201895,1.366864 v -0.515503 l 4.733256,-1.234083 -4.733256,-1.07006 z m 5.201895,-3.678816 h -5.201895 v -0.515503 -0.788876 q 0,-0.796687 0.421775,-1.265326 0.421775,-0.47645 1.124734,-0.47645 0.538935,0 0.921657,0.288994 0.382722,0.281184 0.538936,0.796687 l 2.194793,-1.241894 v 0.570178 l -2.108876,1.187219 v 0.140592 0.788876 h 2.108876 z m -4.733256,-0.515503 h 2.155741 v -0.788876 q 0,-0.554556 -0.288995,-0.882604 -0.296805,-0.328047 -0.788876,-0.328047 -0.492071,0 -0.781065,0.328047 -0.296805,0.328048 -0.296805,0.882604 z m 4.733256,-6.90462 -3.905327,1.280947 v -0.523314 l 3.46012,-1.124734 -3.46012,-1.132545 v -0.523314 l 3.905327,1.280947 z m -0.617041,-3.124262 q -0.71858,0.47645 -1.983906,0.47645 -1.265326,0 -1.983907,-0.47645 Q 15.1,43.259043 15.1,42.407682 q 0,-0.851362 0.71858,-1.335622 0.718581,-0.484261 1.983907,-0.484261 1.265326,0 1.983906,0.484261 0.71858,0.48426 0.71858,1.335622 0,0.851361 -0.71858,1.335621 z M 16.17787,43.352771 q 0.5858,0.335858 1.624617,0.335858 1.038817,0 1.632426,-0.335858 0.585799,-0.343669 0.585799,-0.945089 0,-0.601421 -0.585799,-0.94509 -0.593609,-0.343668 -1.632426,-0.343668 -1.038817,0 -1.624617,0.343668 -0.593609,0.343669 -0.593609,0.94509 0,0.60142 0.593609,0.945089 z m 4.225564,-3.780358 h -0.820118 v -0.663905 h 0.820118 z m 0,-5.490886 v 3.272664 h -0.312426 q -0.413964,0 -0.749823,-0.148402 -0.335858,-0.148403 -0.562367,-0.390533 -0.234319,-0.24213 -0.437396,-0.531124 -0.203077,-0.288995 -0.390533,-0.577989 -0.187456,-0.288994 -0.382722,-0.531124 -0.195266,-0.242131 -0.460829,-0.390533 -0.273373,-0.148402 -0.593609,-0.148402 -0.429586,0 -0.687338,0.288994 -0.257752,0.281183 -0.257752,0.757633 0,0.788876 0.601421,1.19503 l -0.281184,0.398344 Q 15.1,36.73715 15.1,35.682711 q 0,-0.71858 0.382722,-1.148166 0.382722,-0.429586 1.031007,-0.429586 0.492071,0 0.890414,0.265562 0.390533,0.265563 0.663906,0.656095 0.265562,0.390533 0.523314,0.781066 0.249941,0.390532 0.593609,0.695148 0.335858,0.296805 0.749823,0.343669 v -2.764972 z"
     id="text33"
     aria-label="KINETIC-PWR v0.2" />
</svg>
